:FULLY-SPECIFIED
:FORCE-ALL-JOINTS-BE-3DOF
:DEGREES
2141
root -2.36866 15.2668 -0.104309 904.382 8.82193 189.034
lfemur -57.8221 20.1561 -23.4106
ltibia 38.2915 0 0
lfoot 13.2735 19.0976 0
ltoes 9.07873 0 0
rfemur 8.273 -3.67138 28.6591
rtibia 41.5406 0 0
rfoot -23.0838 6.0463 0
rtoes -33.2877 0 0
lowerback 8.75822 1.27201 2.09564
upperback -2.50761 2.36345 3.80254
thorax -7.61267 1.2276 2.48677
lowerneck -5.8041 -1.01589 -5.79487
upperneck 7.71376 -1.12009 3.35815
head 3.57485 -0.570658 2.06047
lclavicle -3.29566e-14 -5.55636e-14 0
lhumerus 56.9558 -3.66118 100.871
lradius 13.0498 0 0
lwrist -61.219 0 0
lhand -36.412 421.298 0
lfingers 7.12502 0 0
lthumb -9.50724 -258.478 0
rclavicle -3.29566e-14 -5.55636e-14 0
rhumerus -58.6309 21.7138 -101.682
rradius 111.284 0 0
rwrist -94.1034 0 0
rhand -11.0476 -392.806 0
rfingers 7.12502 0 0
rthumb 14.4424 301.121 0
2142
root -2.34657 15.2709 -0.361235 904.337 8.7288 189.001
lfemur -57.6772 20.1092 -23.4062
ltibia 38.3503 0 0
lfoot 13.1426 19.12 0
ltoes 8.94843 0 0
rfemur 8.08538 -3.67995 28.5937
rtibia 41.5829 0 0
rfoot -22.954 6.04494 0
rtoes -33.1704 0 0
lowerback 8.77774 1.26597 2.05336
upperback -2.49895 2.3475 3.79703
thorax -7.61295 1.22094 2.508
lowerneck -5.80442 -1.03059 -5.80021
upperneck 7.74318 -1.14301 3.36295
head 3.58449 -0.582699 2.0605
lclavicle -3.28693e-14 -5.53779e-14 0
lhumerus 56.8732 -3.79199 100.82
lradius 13.201 0 0
lwrist -61.0271 0 0
lhand -36.3934 421.331 0
lfingers 7.12502 0 0
lthumb -9.48924 -258.406 0
rclavicle -3.28693e-14 -5.53779e-14 0
rhumerus -58.4857 21.6679 -101.596
rradius 111.341 0 0
rwrist -93.9959 0 0
rhand -10.797 -392.79 0
rfingers 7.12502 0 0
rthumb 14.6519 301.355 0
2143
root -2.32449 15.2751 -0.618161 904.295 8.6272 188.96
lfemur -57.4969 20.0484 -23.3943
ltibia 38.4471 0 0
lfoot 13.0044 19.127 0
ltoes 8.77825 0 0
rfemur 7.85792 -3.68084 28.527
rtibia 41.6443 0 0
rfoot -22.8277 6.02934 0
rtoes -33.0267 0 0
lowerback 8.79792 1.26215 2.01054
upperback -2.48896 2.33422 3.78885
thorax -7.61233 1.21548 2.52623
lowerneck -5.80074 -1.05043 -5.80725
upperneck 7.7651 -1.17286 3.37153
head 3.59173 -0.59815 2.062
lclavicle -3.27341e-14 -5.5162e-14 0
lhumerus 56.6772 -3.93434 100.78
lradius 13.4283 0 0
lwrist -60.7561 0 0
lhand -36.3494 421.038 0
lfingers 7.12502 0 0
lthumb -9.44682 -258.878 0
rclavicle -3.27341e-14 -5.5162e-14 0
rhumerus -58.2451 21.6133 -101.468
rradius 111.323 0 0
rwrist -93.8126 0 0
rhand -10.5547 -392.784 0
rfingers 7.12502 0 0
rthumb 14.8556 301.566 0
2144
root -2.30241 15.2792 -0.875087 904.254 8.51339 188.912
lfemur -57.2772 19.9725 -23.3752
ltibia 38.5816 0 0
lfoot 12.8533 19.1207 0
ltoes 8.56519 0 0
rfemur 7.5849 -3.67506 28.4561
rtibia 41.7255 0 0
rfoot -22.6986 6.00055 0
rtoes -32.8532 0 0
lowerback 8.81962 1.2601 1.96522
upperback -2.47734 2.32264 3.77796
thorax -7.61088 1.21082 2.5427
lowerneck -5.7934 -1.07571 -5.81611
upperneck 7.78151 -1.2102 3.3838
head 3.59721 -0.617313 2.06487
lclavicle -3.25507e-14 -5.49096e-14 0
lhumerus 56.373 -4.0935 100.747
lradius 13.7328 0 0
lwrist -60.4034 0 0
lhand -36.2813 420.447 0
lfingers 7.12502 0 0
lthumb -9.38106 -259.847 0
rclavicle -3.25507e-14 -5.49096e-14 0
rhumerus -57.9099 21.5485 -101.298
rradius 111.24 0 0
rwrist -93.5543 0 0
rhand -10.3081 -392.786 0
rfingers 7.12502 0 0
rthumb 15.0638 301.766 0
2145
root -2.28032 15.2833 -1.13201 904.21 8.38363 188.855
lfemur -57.014 19.8805 -23.3494
ltibia 38.7538 0 0
lfoot 12.6837 19.1036 0
ltoes 8.30623 0 0
rfemur 7.26059 -3.66362 28.3778
rtibia 41.8267 0 0
rfoot -22.5602 5.95962 0
rtoes -32.6465 0 0
lowerback 8.84372 1.25936 1.91544
upperback -2.46378 2.31179 3.76431
thorax -7.6087 1.20655 2.55865
lowerneck -5.78272 -1.10672 -5.8269
upperneck 7.79439 -1.25554 3.3997
head 3.60159 -0.640488 2.06899
lclavicle -3.23187e-14 -5.46141e-14 0
lhumerus 55.9655 -4.27474 100.719
lradius 14.1156 0 0
lwrist -59.966 0 0
lhand -36.1901 419.585 0
lfingers 7.12502 0 0
lthumb -9.29303 -261.267 0
rclavicle -3.23187e-14 -5.46141e-14 0
rhumerus -57.4808 21.4721 -101.083
rradius 111.099 0 0
rwrist -93.222 0 0
rhand -10.0447 -392.794 0
rfingers 7.12502 0 0
rthumb 15.2869 301.968 0
2146
root -2.25824 15.2875 -1.38894 904.162 8.23421 188.787
lfemur -56.7034 19.7713 -23.3173
ltibia 38.9633 0 0
lfoot 12.49 19.0778 0
ltoes 7.99835 0 0
rfemur 6.87926 -3.64753 28.2893
rtibia 41.9485 0 0
rfoot -22.4061 5.90763 0
rtoes -32.403 0 0
lowerback 8.87109 1.25945 1.85925
upperback -2.44798 2.30071 3.74784
thorax -7.60586 1.20225 2.57532
lowerneck -5.76904 -1.14374 -5.83975
upperneck 7.80571 -1.30944 3.41916
head 3.6055 -0.667974 2.07425
lclavicle -3.20378e-14 -5.42692e-14 0
lhumerus 55.4597 -4.48333 100.691
lradius 14.5779 0 0
lwrist -59.4411 0 0
lhand -36.0769 418.479 0
lfingers 7.12502 0 0
lthumb -9.1838 -263.092 0
rclavicle -3.20378e-14 -5.42692e-14 0
rhumerus -56.9582 21.3825 -100.825
rradius 110.909 0 0
rwrist -92.8165 0 0
rhand -9.75206 -392.808 0
rfingers 7.12502 0 0
rthumb 15.5353 302.186 0
2147
root -2.23616 15.2916 -1.64587 904.107 8.06137 188.709
lfemur -56.3411 19.6436 -23.2792
ltibia 39.21 0 0
lfoot 12.2666 19.0457 0
ltoes 7.63853 0 0
rfemur 6.43518 -3.6278 28.1876
rtibia 42.0915 0 0
rfoot -22.2299 5.84561 0
rtoes -32.1193 0 0
lowerback 8.9026 1.25993 1.79469
upperback -2.42964 2.28845 3.7285
thorax -7.60245 1.19752 2.59394
lowerneck -5.75268 -1.18706 -5.85478
upperneck 7.81746 -1.37242 3.44211
head 3.60958 -0.700072 2.08052
lclavicle -3.17076e-14 -5.38686e-14 0
lhumerus 54.8607 -4.72454 100.662
lradius 15.1209 0 0
lwrist -58.8258 0 0
lhand -35.9429 417.156 0
lfingers 7.12502 0 0
lthumb -9.05444 -265.276 0
rclavicle -3.17076e-14 -5.38686e-14 0
rhumerus -56.343 21.2782 -100.521
rradius 110.679 0 0
rwrist -92.3388 0 0
rhand -9.41771 -392.826 0
rfingers 7.12502 0 0
rthumb 15.8193 302.431 0
2148
root -2.21408 15.2957 -1.90279 904.044 7.86141 188.619
lfemur -55.9231 19.4964 -23.2355
ltibia 39.4936 0 0
lfoot 12.0078 19.0095 0
ltoes 7.22376 0 0
rfemur 5.92263 -3.60544 28.0697
rtibia 42.2561 0 0
rfoot -22.0252 5.77464 0
rtoes -31.7919 0 0
lowerback 8.93912 1.26034 1.71982
upperback -2.40844 2.27403 3.70625
thorax -7.59856 1.19194 2.61576
lowerneck -5.73398 -1.23698 -5.87209
upperneck 7.83162 -1.44502 3.46847
head 3.61449 -0.737083 2.0877
lclavicle -3.13277e-14 -5.34058e-14 0
lhumerus 54.1734 -5.00366 100.627
lradius 15.7457 0 0
lwrist -58.1173 0 0
lhand -35.7891 415.643 0
lfingers 7.12502 0 0
lthumb -8.90603 -267.773 0
rclavicle -3.13277e-14 -5.34058e-14 0
rhumerus -55.6356 21.1578 -100.171
rradius 110.418 0 0
rwrist -91.7896 0 0
rhand -9.02915 -392.846 0
rfingers 7.12502 0 0
rthumb 16.1492 302.718 0
2149
root -2.19199 15.2999 -2.15972 903.969 7.63057 188.515
lfemur -55.4455 19.3286 -23.1866
ltibia 39.8139 0 0
lfoot 11.7081 18.9715 0
ltoes 6.75102 0 0
rfemur 5.33588 -3.58145 27.9325
rtibia 42.4428 0 0
rfoot -21.7855 5.69577 0
rtoes -31.4173 0 0
lowerback 8.98151 1.2602 1.63268
upperback -2.38409 2.25649 3.68103
thorax -7.59427 1.18511 2.64201
lowerneck -5.71325 -1.29377 -5.89182
upperneck 7.85016 -1.52778 3.49819
head 3.62087 -0.779307 2.09566
lclavicle -3.08978e-14 -5.28744e-14 0
lhumerus 53.403 -5.32594 100.583
lradius 16.4535 0 0
lwrist -57.3127 0 0
lhand -35.6167 413.968 0
lfingers 7.12502 0 0
lthumb -8.73964 -270.536 0
rclavicle -3.08978e-14 -5.28744e-14 0
rhumerus -54.8369 21.0199 -99.775
rradius 110.133 0 0
rwrist -91.17 0 0
rhand -8.5739 -392.866 0
rfingers 7.12502 0 0
rthumb 16.5355 303.059 0
2150
root -2.16991 15.304 -2.41664 903.881 7.36512 188.398
lfemur -54.904 19.1391 -23.1328
ltibia 40.1707 0 0
lfoot 11.3618 18.934 0
ltoes 6.21729 0 0
rfemur 4.6692 -3.55686 27.7731
rtibia 42.6521 0 0
rfoot -21.5046 5.61005 0
rtoes -30.9922 0 0
lowerback 9.03066 1.25906 1.53131
upperback -2.35628 2.23488 3.65279
thorax -7.58967 1.17662 2.67394
lowerneck -5.69084 -1.35774 -5.91408
upperneck 7.87506 -1.62123 3.53119
head 3.62935 -0.827043 2.1043
lclavicle -3.04176e-14 -5.2268e-14 0
lhumerus 52.5543 -5.69665 100.527
lradius 17.2454 0 0
lwrist -56.4092 0 0
lhand -35.4268 412.157 0
lfingers 7.12502 0 0
lthumb -8.55633 -273.519 0
rclavicle -3.04176e-14 -5.2268e-14 0
rhumerus -53.9473 20.8628 -99.3316
rradius 109.834 0 0
rwrist -90.4809 0 0
rhand -8.03948 -392.886 0
rfingers 7.12502 0 0
rthumb 16.9884 303.467 0
2151
root -2.14783 15.3082 -2.67357 903.777 7.06135 188.265
lfemur -54.2947 18.9266 -23.0746
ltibia 40.5639 0 0
lfoot 10.9633 18.8992 0
ltoes 5.61956 0 0
rfemur 3.91687 -3.53266 27.5885
rtibia 42.8844 0 0
rfoot -21.1758 5.51855 0
rtoes -30.5129 0 0
lowerback 9.08743 1.25647 1.41376
upperback -2.32471 2.20822 3.62148
thorax -7.58483 1.16606 2.71278
lowerneck -5.66707 -1.42917 -5.93898
upperneck 7.90832 -1.72591 3.5674
head 3.6406 -0.880592 2.1135
lclavicle -2.98867e-14 -5.15803e-14 0
lhumerus 51.6325 -6.12108 100.456
lradius 18.1226 0 0
lwrist -55.404 0 0
lhand -35.2204 410.239 0
lfingers 7.12502 0 0
lthumb -8.35719 -276.676 0
rclavicle -2.98867e-14 -5.15803e-14 0
rhumerus -52.9676 20.6852 -98.8402
rradius 109.529 0 0
rwrist -89.723 0 0
rhand -7.4134 -392.903 0
rfingers 7.12502 0 0
rthumb 17.5184 303.954 0
2152
root -2.12574 15.3123 -2.9305 903.654 6.7155 188.116
lfemur -53.6134 18.6902 -23.0123
ltibia 40.993 0 0
lfoot 10.5071 18.8694 0
ltoes 4.95481 0 0
rfemur 3.07316 -3.50986 27.3758
rtibia 43.1403 0 0
rfoot -20.7929 5.42232 0
rtoes -29.9761 0 0
lowerback 9.15268 1.25196 1.27807
upperback -2.28906 2.17557 3.58705
thorax -7.57986 1.15302 2.75977
lowerneck -5.64228 -1.50834 -5.96665
upperneck 7.95189 -1.84236 3.60675
head 3.65524 -0.940255 2.12314
lclavicle -2.93047e-14 -5.08049e-14 0
lhumerus 50.6426 -6.60449 100.366
lradius 19.0863 0 0
lwrist -54.2941 0 0
lhand -34.9988 408.239 0
lfingers 7.12502 0 0
lthumb -8.14327 -279.961 0
rclavicle -2.93047e-14 -5.08049e-14 0
rhumerus -51.8983 20.4855 -98.3002
rradius 109.226 0 0
rwrist -88.8973 0 0
rhand -6.68318 -392.916 0
rfingers 7.12502 0 0
rthumb 18.1358 304.534 0
2153
root -2.10366 15.3164 -3.18742 903.511 6.32386 187.949
lfemur -52.8562 18.4286 -22.9464
ltibia 41.4581 0 0
lfoot 9.9875 18.8469 0
ltoes 4.22002 0 0
rfemur 2.13233 -3.48948 27.1318
rtibia 43.4203 0 0
rfoot -20.3494 5.32242 0
rtoes -29.3782 0 0
lowerback 9.2273 1.24506 1.1223
upperback -2.24904 2.13594 3.54946
thorax -7.57482 1.13709 2.81616
lowerneck -5.61678 -1.59556 -5.99719
upperneck 8.00778 -1.97111 3.64917
head 3.67392 -1.00633 2.1331
lclavicle -2.86713e-14 -4.99353e-14 0
lhumerus 49.5895 -7.15215 100.254
lradius 20.1377 0 0
lwrist -53.0767 0 0
lhand -34.763 406.187 0
lfingers 7.12502 0 0
lthumb -7.91566 -283.328 0
rclavicle -2.86713e-14 -4.99353e-14 0
rhumerus -50.7401 20.2623 -97.7109
rradius 108.934 0 0
rwrist -88.0048 0 0
rhand -5.83634 -392.924 0
rfingers 7.12502 0 0
rthumb 18.8509 305.22 0
